<svg xmlns="http://www.w3.org/2000/svg" version="1.2" viewBox="0 0 128 128"><path d="M69.962245 40.487175h39.058965c4.43173 0 7.16426 0 10.53972-3.168808 4.22508-3.582127 4.22508-8.427185 4.22508-8.863472 0-8.22052-7.60054-8.22052-11.18267-8.22052H43.142214c-4.431739 0-13.501871 0-24.7075 10.126397-7.370915 6.750936-15.614402 17.520279-15.614402 19.632816 0 2.962142 2.525862 2.962142 4.8450585 2.962142 3.1688075 0 3.3984285-.20666 5.2813445-2.548817 8.036822-9.919738 21.952012-9.919738 25.970426-9.919738h19.012824L50.32943 62.875468c-1.905877 5.281344-6.544276 18.783212-8.243487 24.271212-2.319197 6.54427-6.33761 17.7499-6.33761 20.0691 0 5.90132 4.661359 9.27679 9.942698 9.27679 1.469591 0 12.238934 0 14.32851-13.91518l9.942704-62.090215" fill="#fff"/></svg>