<?xml version="1.0" encoding="UTF-8"?><svg xmlns="http://www.w3.org/2000/svg" xmlns:xlink="http://www.w3.org/1999/xlink" fill-opacity="1" color-rendering="auto" color-interpolation="auto" text-rendering="auto" stroke="black" stroke-linecap="square" width="523" stroke-miterlimit="10" shape-rendering="auto" stroke-opacity="1" fill="black" stroke-dasharray="none" font-weight="normal" stroke-width="1" height="193" font-family="'Dialog'" font-style="normal" stroke-linejoin="miter" font-size="12px" stroke-dashoffset="0" image-rendering="auto">
  <!--Generated by ySVG 2.5-->
  <defs id="genericDefs"/>
  <g>
    <defs id="defs1">
      <linearGradient x1="98" gradientUnits="userSpaceOnUse" x2="178" y1="434" y2="474" id="linearGradient1" spreadMethod="reflect">
        <stop stop-opacity="1" stop-color="rgb(232,238,247)" offset="0%"/>
        <stop stop-opacity="1" stop-color="rgb(183,201,227)" offset="100%"/>
      </linearGradient>
      <linearGradient x1="199" gradientUnits="userSpaceOnUse" x2="279" y1="458" y2="498" id="linearGradient2" spreadMethod="reflect">
        <stop stop-opacity="1" stop-color="rgb(232,238,247)" offset="0%"/>
        <stop stop-opacity="1" stop-color="rgb(183,201,227)" offset="100%"/>
      </linearGradient>
      <linearGradient x1="208" gradientUnits="userSpaceOnUse" x2="288" y1="394" y2="434" id="linearGradient3" spreadMethod="reflect">
        <stop stop-opacity="1" stop-color="rgb(232,238,247)" offset="0%"/>
        <stop stop-opacity="1" stop-color="rgb(183,201,227)" offset="100%"/>
      </linearGradient>
      <linearGradient x1="511" gradientUnits="userSpaceOnUse" x2="591" y1="430.5" y2="470.5" id="linearGradient4" spreadMethod="reflect">
        <stop stop-opacity="1" stop-color="rgb(232,238,247)" offset="0%"/>
        <stop stop-opacity="1" stop-color="rgb(183,201,227)" offset="100%"/>
      </linearGradient>
      <linearGradient x1="404.5" gradientUnits="userSpaceOnUse" x2="495.5" y1="430.5" y2="470.5" id="linearGradient5" spreadMethod="reflect">
        <stop stop-opacity="1" stop-color="rgb(232,238,247)" offset="0%"/>
        <stop stop-opacity="1" stop-color="rgb(183,201,227)" offset="100%"/>
      </linearGradient>
      <linearGradient x1="253" gradientUnits="userSpaceOnUse" x2="338" y1="517" y2="557" id="linearGradient6" spreadMethod="reflect">
        <stop stop-opacity="1" stop-color="rgb(232,238,247)" offset="0%"/>
        <stop stop-opacity="1" stop-color="rgb(183,201,227)" offset="100%"/>
      </linearGradient>
      <linearGradient x1="309" gradientUnits="userSpaceOnUse" x2="389" y1="430.5" y2="470.5" id="linearGradient7" spreadMethod="reflect">
        <stop stop-opacity="1" stop-color="rgb(232,238,247)" offset="0%"/>
        <stop stop-opacity="1" stop-color="rgb(183,201,227)" offset="100%"/>
      </linearGradient>
      <clipPath clipPathUnits="userSpaceOnUse" id="clipPath1">
        <path d="M0 0 L523 0 L523 193 L0 193 L0 0 Z"/>
      </clipPath>
      <clipPath clipPathUnits="userSpaceOnUse" id="clipPath2">
        <path d="M83 379 L606 379 L606 572 L83 572 L83 379 Z"/>
      </clipPath>
    </defs>
    <g fill="white" text-rendering="geometricPrecision" shape-rendering="geometricPrecision" transform="translate(-83,-379)" stroke="white">
      <rect x="83" width="523" height="193" y="379" clip-path="url(#clipPath2)" stroke="none"/>
    </g>
    <g fill="url(#linearGradient1)" text-rendering="geometricPrecision" shape-rendering="geometricPrecision" transform="matrix(1,0,0,1,-83,-379)" stroke="url(#linearGradient1)">
      <path d="M98 434 L178 434 L178 474 L98 474 Z" stroke="none" clip-path="url(#clipPath2)"/>
    </g>
    <g text-rendering="geometricPrecision" stroke-miterlimit="1.45" shape-rendering="geometricPrecision" transform="matrix(1,0,0,1,-83,-379)" stroke-linecap="butt">
      <path fill="none" d="M98 434 L178 434 L178 474 L98 474 Z" clip-path="url(#clipPath2)"/>
      <text x="101.7354" font-size="14px" y="458.8467" clip-path="url(#clipPath2)" font-family="sans-serif" stroke="none" xml:space="preserve">Run Script</text>
    </g>
    <g fill="url(#linearGradient2)" text-rendering="geometricPrecision" shape-rendering="geometricPrecision" transform="matrix(1,0,0,1,-83,-379)" stroke="url(#linearGradient2)">
      <path d="M199 458 L279 458 L279 498 L199 498 Z" stroke="none" clip-path="url(#clipPath2)"/>
    </g>
    <g text-rendering="geometricPrecision" stroke-miterlimit="1.45" shape-rendering="geometricPrecision" transform="matrix(1,0,0,1,-83,-379)" stroke-linecap="butt">
      <path fill="none" d="M199 458 L279 458 L279 498 L199 498 Z" clip-path="url(#clipPath2)"/>
      <text x="204.0444" font-size="14px" y="482.8467" clip-path="url(#clipPath2)" font-family="sans-serif" stroke="none" xml:space="preserve">Linux Perf</text>
    </g>
    <g fill="url(#linearGradient3)" text-rendering="geometricPrecision" shape-rendering="geometricPrecision" transform="matrix(1,0,0,1,-83,-379)" stroke="url(#linearGradient3)">
      <path d="M208 394 L288 394 L288 434 L208 434 Z" stroke="none" clip-path="url(#clipPath2)"/>
    </g>
    <g text-rendering="geometricPrecision" stroke-miterlimit="1.45" shape-rendering="geometricPrecision" transform="matrix(1,0,0,1,-83,-379)" stroke-linecap="butt">
      <path fill="none" d="M208 394 L288 394 L288 434 L208 434 Z" clip-path="url(#clipPath2)"/>
      <text x="211.2671" font-size="14px" y="410.6982" clip-path="url(#clipPath2)" font-family="sans-serif" stroke="none" xml:space="preserve">Allocation </text>
      <text x="221.4697" font-size="14px" y="426.9951" clip-path="url(#clipPath2)" font-family="sans-serif" stroke="none" xml:space="preserve">Tracker</text>
    </g>
    <g fill="url(#linearGradient4)" text-rendering="geometricPrecision" shape-rendering="geometricPrecision" transform="matrix(1,0,0,1,-83,-379)" stroke="url(#linearGradient4)">
      <path d="M511 430.5 L591 430.5 L591 470.5 L511 470.5 Z" stroke="none" clip-path="url(#clipPath2)"/>
    </g>
    <g text-rendering="geometricPrecision" stroke-miterlimit="1.45" shape-rendering="geometricPrecision" transform="matrix(1,0,0,1,-83,-379)" stroke-linecap="butt">
      <path fill="none" d="M511 430.5 L591 430.5 L591 470.5 L511 470.5 Z" clip-path="url(#clipPath2)"/>
      <text x="527.0503" font-size="14px" y="455.3467" clip-path="url(#clipPath2)" font-family="sans-serif" stroke="none" xml:space="preserve">Viewer</text>
    </g>
    <g fill="url(#linearGradient5)" text-rendering="geometricPrecision" shape-rendering="geometricPrecision" transform="matrix(1,0,0,1,-83,-379)" stroke="url(#linearGradient5)">
      <path d="M414.7 430.5 L495.5 430.5 L485.3 470.5 L404.5 470.5 Z" stroke="none" clip-path="url(#clipPath2)"/>
    </g>
    <g text-rendering="geometricPrecision" stroke-miterlimit="1.45" shape-rendering="geometricPrecision" transform="matrix(1,0,0,1,-83,-379)" stroke-linecap="butt">
      <path fill="none" d="M414.7 430.5 L495.5 430.5 L485.3 470.5 L404.5 470.5 Z" clip-path="url(#clipPath2)"/>
      <text x="430.1724" font-size="14px" y="447.1982" clip-path="url(#clipPath2)" font-family="sans-serif" stroke="none" xml:space="preserve">Sqlite</text>
      <text x="416.5996" font-size="14px" y="463.4951" clip-path="url(#clipPath2)" font-family="sans-serif" stroke="none" xml:space="preserve">Database</text>
    </g>
    <g fill="url(#linearGradient6)" text-rendering="geometricPrecision" shape-rendering="geometricPrecision" transform="matrix(1,0,0,1,-83,-379)" stroke="url(#linearGradient6)">
      <path d="M253 517 L338 517 L338 557 L253 557 Z" stroke="none" clip-path="url(#clipPath2)"/>
    </g>
    <g text-rendering="geometricPrecision" stroke-miterlimit="1.45" shape-rendering="geometricPrecision" transform="matrix(1,0,0,1,-83,-379)" stroke-linecap="butt">
      <path fill="none" d="M253 517 L338 517 L338 557 L253 557 Z" clip-path="url(#clipPath2)"/>
      <text x="269.0142" font-size="14px" y="533.6982" clip-path="url(#clipPath2)" font-family="sans-serif" stroke="none" xml:space="preserve">Profiled</text>
      <text x="256.3882" font-size="14px" y="549.9951" clip-path="url(#clipPath2)" font-family="sans-serif" stroke="none" xml:space="preserve">Application</text>
    </g>
    <g fill="url(#linearGradient7)" text-rendering="geometricPrecision" shape-rendering="geometricPrecision" transform="matrix(1,0,0,1,-83,-379)" stroke="url(#linearGradient7)">
      <path d="M309 430.5 L389 430.5 L389 470.5 L309 470.5 Z" stroke="none" clip-path="url(#clipPath2)"/>
    </g>
    <g text-rendering="geometricPrecision" stroke-miterlimit="1.45" shape-rendering="geometricPrecision" transform="matrix(1,0,0,1,-83,-379)" stroke-linecap="butt">
      <path fill="none" d="M309 430.5 L389 430.5 L389 470.5 L309 470.5 Z" clip-path="url(#clipPath2)"/>
      <text x="332.2861" font-size="14px" y="447.1982" clip-path="url(#clipPath2)" font-family="sans-serif" stroke="none" xml:space="preserve">Data</text>
      <text x="324.1479" font-size="14px" y="463.4951" clip-path="url(#clipPath2)" font-family="sans-serif" stroke="none" xml:space="preserve">Merger</text>
    </g>
    <g text-rendering="geometricPrecision" stroke-miterlimit="1.45" shape-rendering="geometricPrecision" transform="matrix(1,0,0,1,-83,-379)" stroke-linecap="butt">
      <path fill="none" d="M178.0203 463.5098 L191.2285 466.6484" clip-path="url(#clipPath2)"/>
    </g>
    <g text-rendering="geometricPrecision" stroke-miterlimit="1.45" shape-rendering="geometricPrecision" transform="matrix(1,0,0,1,-83,-379)" stroke-linecap="butt">
      <path d="M199.0118 468.4979 L188.4928 460.8591 L190.2556 466.4172 L186.181 470.5882 Z" stroke="none" clip-path="url(#clipPath2)"/>
      <path fill="none" d="M177.9878 439.459 L200.4503 431.2908" clip-path="url(#clipPath2)"/>
      <path d="M207.9686 428.5569 L194.9824 427.9588 L199.5105 431.6325 L198.3998 437.3567 Z" clip-path="url(#clipPath2)" stroke="none"/>
      <path fill="none" d="M490.3901 450.5 L503.0176 450.5" clip-path="url(#clipPath2)"/>
      <path d="M511.0176 450.5 L499.0176 445.5 L502.0176 450.5 L499.0176 455.5 Z" clip-path="url(#clipPath2)" stroke="none"/>
      <path fill="none" d="M232.4894 505.6923 L232.466 505.7895 L231.9402 509.4588 L232.3234 514.0695 L233.8246 518.1635 L236.4437 521.7406 L240.1808 524.801 L245.0359 527.3445 L245.3275 527.4435 L245.4253 527.4643" clip-path="url(#clipPath2)" stroke="blue"/>
      <path fill="blue" d="M234.2223 497.8822 L226.7416 508.5142 L232.2728 506.6685 L236.5042 510.6804 Z" clip-path="url(#clipPath2)" stroke="none"/>
      <path fill="blue" d="M253.0708 529.8193 L243.0745 521.5083 L244.4696 527.1699 L240.1306 531.0652 Z" clip-path="url(#clipPath2)" stroke="none"/>
      <path fill="none" d="M272.0011 439.8795 L279.625 448.1 L285.3204 455.153 L289.469 462.362 L292.0708 469.727 L293.1259 477.248 L292.6342 484.925 L290.5958 492.758 L287.0107 500.747 L281.8787 508.892 L280.7091 510.5207" clip-path="url(#clipPath2)" stroke="blue"/>
      <path fill="blue" d="M266.5612 434.0138 L271.0551 446.2123 L272.6811 440.6127 L278.3872 439.4124 Z" clip-path="url(#clipPath2)" stroke="none"/>
      <path fill="blue" d="M276.0426 517.0187 L287.1036 510.1883 L281.2924 509.7084 L278.9811 504.3551 Z" clip-path="url(#clipPath2)" stroke="none"/>
      <path fill="none" d="M288.0203 428.4628 L301.4881 433.3298" clip-path="url(#clipPath2)"/>
      <path d="M309.0118 436.0488 L299.4256 427.268 L300.5476 432.99 L296.0268 436.6727 Z" clip-path="url(#clipPath2)" stroke="none"/>
      <path fill="none" d="M278.9878 468.0031 L301.2075 462.4481" clip-path="url(#clipPath2)"/>
      <path d="M308.9686 460.5078 L296.1142 458.5675 L300.2373 462.6906 L298.5396 468.269 Z" clip-path="url(#clipPath2)" stroke="none"/>
      <path fill="none" d="M388.9956 450.5 L401.5786 450.5" clip-path="url(#clipPath2)"/>
      <path d="M409.5786 450.5 L397.5786 445.5 L400.5786 450.5 L397.5786 455.5 Z" clip-path="url(#clipPath2)" stroke="none"/>
    </g>
  </g>
</svg>
